<?xml version="1.0" encoding="utf-8"?>
<svg xmlns="http://www.w3.org/2000/svg" fill="none" height="24" viewBox="0 0 94 24" width="94">
<path clip-rule="evenodd" d="M23.7803 12C23.7803 18.6274 18.4569 24 11.8901 24C5.32339 24 0 18.6274 0 12C0 5.37258 5.32339 0 11.8901 0C18.4569 0 23.7803 5.37258 23.7803 12ZM9.67833 9.75984V5.28L7.467 7.52016V14.2402C7.467 15.4283 7.933 16.5678 8.7625 17.4079C9.592 18.248 10.717 18.72 11.8901 18.72C13.0632 18.72 14.1883 18.248 15.0178 17.4079C15.8472 16.5678 16.3133 15.4283 16.3133 14.2402H14.1019C14.1019 14.8343 13.8689 15.4041 13.4541 15.8242C13.0393 16.2443 12.4767 16.4803 11.8901 16.4803C11.3035 16.4803 10.7409 16.2443 10.3261 15.8242C9.91136 15.4041 9.67833 14.8343 9.67833 14.2402V12H14.1019L16.3133 9.75984H9.67833Z" fill="#FDFDFD" fill-rule="evenodd"/>
<path d="M85.0416 7.584H86.9663V9.27563H85.0416V7.584Z" fill="#FDFDFD"/>
<path d="M85.101 16.308V10.4154H86.895V16.308H85.101Z" fill="#FDFDFD"/>
<path d="M63.1032 14.3524C63.4263 14.994 63.9308 15.5243 64.5527 15.8761C65.1822 16.2347 65.9209 16.4147 66.7687 16.416C67.3098 16.4181 67.8476 16.3311 68.3608 16.1583C68.8674 15.9865 69.2833 15.7484 69.6084 15.4442L69.0143 14.1125C68.6858 14.3727 68.3189 14.5792 67.9269 14.7243C67.5663 14.8524 67.1867 14.9173 66.8044 14.9163C66.0595 14.9166 65.4872 14.6747 65.0873 14.1907C64.6875 13.7066 64.4876 13.0007 64.4876 12.0729C64.4876 11.1451 64.6875 10.4413 65.0873 9.96139C65.4872 9.4815 66.0595 9.24155 66.8044 9.24155C67.1866 9.24073 67.5662 9.30565 67.9269 9.43351C68.3187 9.57906 68.6856 9.7855 69.0143 10.0454L69.6084 8.71367C69.2836 8.40974 68.8678 8.17187 68.3608 8.00007C67.8476 7.82711 67.3098 7.73991 66.7687 7.74188C65.9212 7.74188 65.1825 7.91993 64.5527 8.27601C63.9303 8.62438 63.4255 9.15286 63.1032 9.79343C62.7667 10.449 62.5984 11.2088 62.5984 12.0729C62.5984 12.9371 62.7667 13.6969 63.1032 14.3524Z" fill="#FDFDFD"/>
<path d="M33.8459 16.308V9.3716H31.2201V7.84794H38.3251V9.3716H35.6994V16.308H33.8459Z" fill="#FDFDFD"/>
<path clip-rule="evenodd" d="M39.3825 16.0244C38.9262 15.7832 38.5502 15.4119 38.3013 14.9566C38.0479 14.4969 37.9211 13.9549 37.9211 13.3307C37.9211 12.7065 38.0479 12.1647 38.3013 11.7053C38.5497 11.2515 38.926 10.8826 39.3825 10.6452C39.8499 10.3976 40.3924 10.2736 41.0103 10.2733C41.6281 10.273 42.1707 10.397 42.638 10.6452C43.0948 10.8831 43.4711 11.2528 43.7192 11.7072C43.9726 12.167 44.0994 12.7088 44.0994 13.3326C44.0994 13.9565 43.9726 14.4985 43.7192 14.9585C43.4703 15.4138 43.0943 15.7852 42.638 16.0263C42.171 16.2781 41.6284 16.404 41.0103 16.404C40.3921 16.404 39.8495 16.2774 39.3825 16.0244ZM42.3172 13.3326C42.3172 12.7651 42.2044 12.3412 41.9788 12.0609C41.7532 11.7807 41.4304 11.6407 41.0103 11.641C40.1393 11.641 39.7036 12.2049 39.7033 13.3326C39.703 14.4604 40.1386 15.0243 41.0103 15.0243C41.8815 15.023 42.3172 14.4591 42.3172 13.3326Z" fill="#FDFDFD" fill-rule="evenodd"/>
<path d="M54.3529 12.7568C54.3526 11.917 54.1902 11.2931 53.8657 10.8852C53.541 10.476 53.0459 10.2714 52.3806 10.2714C51.9852 10.2672 51.5958 10.3687 51.2519 10.5656C50.9194 10.7531 50.6441 11.0289 50.4558 11.3632C50.1628 10.6353 49.5845 10.2714 48.7212 10.2714C48.3567 10.2642 47.9959 10.3465 47.6699 10.5114C47.3666 10.6697 47.1134 10.9108 46.939 11.2072V10.4154H45.1924V16.308H46.9865V13.0548C46.9865 12.6229 47.0816 12.287 47.2717 12.047C47.4618 11.8071 47.7271 11.6871 48.0677 11.6871C48.3611 11.6868 48.5691 11.7748 48.6917 11.951C48.8143 12.1273 48.8756 12.4152 48.8756 12.8148V16.308H50.6697V13.0548C50.67 12.6229 50.7651 12.287 50.9548 12.047C51.1446 11.8071 51.41 11.6871 51.7509 11.6871C52.0443 11.6868 52.2523 11.7748 52.3749 11.951C52.4975 12.1273 52.5588 12.4152 52.5588 12.8148V16.308H54.3529V12.7568Z" fill="#FDFDFD"/>
<path clip-rule="evenodd" d="M56.8836 16.0244C56.4272 15.7834 56.0511 15.412 55.8024 14.9566C55.5489 14.4969 55.4222 13.9549 55.4222 13.3307C55.4222 12.7065 55.5489 12.1647 55.8024 11.7053C56.0506 11.2514 56.427 10.8824 56.8836 10.6452C57.3506 10.3976 57.8932 10.2736 58.5113 10.2733C59.1294 10.273 59.672 10.397 60.139 10.6452C60.5957 10.8832 60.972 11.2528 61.2202 11.7072C61.4737 12.167 61.6004 12.7088 61.6004 13.3326C61.6004 13.9565 61.4737 14.4985 61.2202 14.9585C60.9712 15.4137 60.5952 15.785 60.139 16.0263C59.6714 16.2784 59.1288 16.4043 58.5113 16.404C57.8938 16.4036 57.3512 16.2771 56.8836 16.0244ZM59.8182 13.3326C59.8182 12.7651 59.7054 12.3412 59.4798 12.0609C59.2543 11.7807 58.9314 11.6407 58.5113 11.641C57.6397 11.641 57.204 12.2049 57.2044 13.3326C57.2047 14.4604 57.6403 15.0243 58.5113 15.0243C59.3826 15.023 59.8182 14.4591 59.8182 13.3326Z" fill="#FDFDFD" fill-rule="evenodd"/>
<path d="M75.9648 10.8895C76.3051 11.3025 76.4754 11.925 76.4757 12.7568V16.308H74.6816V12.8388C74.6816 12.4392 74.6083 12.1473 74.4616 11.963C74.3149 11.7787 74.0873 11.6868 73.7787 11.6871C73.4061 11.6871 73.107 11.8071 72.8814 12.047C72.6558 12.287 72.543 12.6069 72.543 13.0068V16.308H70.749V7.84794H72.543V11.1952C72.7408 10.8984 73.0135 10.6603 73.3329 10.5056C73.6691 10.3461 74.0369 10.266 74.4084 10.2714C75.1051 10.2714 75.6239 10.4774 75.9648 10.8895Z" fill="#FDFDFD"/>
<path clip-rule="evenodd" d="M83.7227 16.308V10.4154H81.9406V11.2432C81.7657 10.9386 81.5081 10.6909 81.1982 10.5296C80.8625 10.354 80.4889 10.2653 80.1109 10.2714C79.6368 10.2641 79.1715 10.4 78.7745 10.6616C78.374 10.9314 78.0569 11.3098 77.8596 11.7533C77.6416 12.2207 77.5326 12.7585 77.5326 13.3667C77.5326 13.9749 77.6416 14.5089 77.8596 14.9686C78.0773 15.4283 78.3802 15.7822 78.7683 16.0301C79.1564 16.2781 79.6039 16.402 80.1109 16.402C80.4888 16.4083 80.8625 16.3197 81.1982 16.1443C81.5083 15.983 81.7659 15.7351 81.9406 15.4303V16.308H83.7227ZM81.9406 13.3427C81.9409 13.8866 81.8281 14.3025 81.6022 14.5904C81.3766 14.8784 81.0538 15.0223 80.6336 15.0223C80.2138 15.0223 79.8891 14.8805 79.6594 14.5967C79.4297 14.3129 79.3148 13.9029 79.3148 13.3667C79.3148 12.8232 79.4297 12.4013 79.6594 12.1012C79.8888 11.8008 80.2135 11.6508 80.6336 11.6511C81.0538 11.6514 81.3766 11.7975 81.6022 12.0892C81.8275 12.381 81.9403 12.7988 81.9406 13.3427Z" fill="#FDFDFD" fill-rule="evenodd"/>
<path d="M94 12.7568C94 11.925 93.8297 11.3025 93.4891 10.8895C93.1485 10.4774 92.6297 10.2714 91.9327 10.2714C91.5479 10.2652 91.1672 10.3515 90.822 10.5233C90.4944 10.6902 90.2173 10.9429 90.0198 11.2552V10.4154H88.2733V16.308H90.0673V13.0068C90.0676 12.6069 90.1806 12.287 90.4062 12.047C90.6318 11.8071 90.9307 11.6871 91.303 11.6871C91.6122 11.6868 91.84 11.7787 91.9864 11.963C92.1327 12.1473 92.2059 12.4392 92.2059 12.8388V16.308H94V12.7568Z" fill="#FDFDFD"/>
</svg>