<?xml version="1.0" encoding="utf-8"?>
<svg xmlns="http://www.w3.org/2000/svg" fill="none" height="24" viewBox="0 0 103 24" width="103">
<path d="M0.997559 12.1077L8.27301 0L15.9764 12.1077L8.27301 16.4211L0.997559 12.1077Z" fill="#FDFDFD"/>
<path d="M15.9764 13.4737L8.27301 17.8869L0.997559 13.4737L8.27301 24L15.9764 13.4737Z" fill="#FDFDFD"/>
<path d="M44.5564 7.65301C45.6514 7.65301 46.53 7.99727 47.1921 8.68579C47.8669 9.37432 48.2043 10.3497 48.2043 11.612V17.7705H45.9506V12.0137C45.9506 11.2231 45.7597 10.6239 45.3777 10.2158C44.9957 9.80783 44.4928 9.60383 43.8689 9.60383C43.2323 9.60383 42.7102 9.82058 42.3028 10.2541C41.9081 10.6876 41.7107 11.306 41.7107 12.1093V17.7705H39.438V4H41.7107V9.24044C42.0036 8.71767 42.3919 8.3224 42.8757 8.05464C43.3596 7.78688 43.9198 7.65301 44.5564 7.65301Z" fill="#FDFDFD"/>
<path d="M35.8904 14.5V9.77596H37.9912V7.88251H35.8904V5.09016H33.6176V7.88251H32.0324V9.77596H33.6176V14.6339C33.6176 15.6794 33.8723 16.4827 34.3816 17.0437C34.8909 17.6047 35.6548 17.8852 36.6734 17.8852C37.1445 17.8852 37.5838 17.8406 37.9912 17.7514V15.877C37.7875 15.9153 37.5201 15.9344 37.1891 15.9344C36.3233 15.9344 35.8904 15.4563 35.8904 14.5Z" fill="#FDFDFD"/>
<path clip-rule="evenodd" d="M30.2377 9.06831C29.4101 8.12477 28.2578 7.65301 26.7809 7.65301C25.8387 7.65301 25.0047 7.86976 24.2789 8.30328C23.5532 8.73679 22.9866 9.35519 22.5791 10.1585C22.1717 10.949 21.968 11.867 21.968 12.9126C21.968 13.9199 22.159 14.806 22.5409 15.571C22.9357 16.3361 23.5023 16.9353 24.2407 17.3689C24.9792 17.7896 25.8578 18 26.8764 18C28.0605 18 29.0345 17.7131 29.7985 17.1393C30.5752 16.5528 31.0717 15.8005 31.2882 14.8825H28.9963C28.8563 15.3033 28.608 15.6348 28.2515 15.877C27.895 16.1066 27.4302 16.2213 26.8573 16.2213C26.1188 16.2213 25.514 15.9982 25.0429 15.5519C24.5845 15.1056 24.3108 14.4235 24.2216 13.5055H31.4601V13.276C31.4728 13.1612 31.4792 13.0209 31.4792 12.8552C31.4792 11.2614 31.0654 9.99909 30.2377 9.06831ZM28.4425 10.0628C28.8626 10.4964 29.0982 11.1275 29.1491 11.9563H24.2789C24.4063 11.1275 24.6864 10.4964 25.1193 10.0628C25.5649 9.62933 26.1188 9.41257 26.7809 9.41257C27.4812 9.41257 28.035 9.62933 28.4425 10.0628Z" fill="#FDFDFD" fill-rule="evenodd"/>
<path clip-rule="evenodd" d="M57.9347 9.06831C57.107 8.12477 55.9548 7.65301 54.4778 7.65301C53.5356 7.65301 52.7016 7.86976 51.9758 8.30328C51.2501 8.73679 50.6835 9.35519 50.2761 10.1585C49.8686 10.949 49.6649 11.867 49.6649 12.9126C49.6649 13.9199 49.8559 14.806 50.2379 15.571C50.6326 16.3361 51.1992 16.9353 51.9376 17.3689C52.6761 17.7896 53.5547 18 54.5733 18C55.7574 18 56.7314 17.7131 57.4954 17.1393C58.2721 16.5528 58.7686 15.8005 58.9851 14.8825H56.6932C56.5532 15.3033 56.3049 15.6348 55.9484 15.877C55.5919 16.1066 55.1271 16.2213 54.5542 16.2213C53.8157 16.2213 53.2109 15.9982 52.7398 15.5519C52.2814 15.1056 52.0077 14.4235 51.9185 13.5055H59.157V13.276C59.1697 13.1612 59.1761 13.0209 59.1761 12.8552C59.1761 11.2614 58.7623 9.99909 57.9347 9.06831ZM56.1394 10.0628C56.5595 10.4964 56.7951 11.1275 56.846 11.9563H51.9758C52.1032 11.1275 52.3833 10.4964 52.8162 10.0628C53.2618 9.62933 53.8157 9.41257 54.4778 9.41257C55.1781 9.41257 55.7319 9.62933 56.1394 10.0628Z" fill="#FDFDFD" fill-rule="evenodd"/>
<path d="M65.3026 7.78689C65.5445 7.78689 65.761 7.81239 65.952 7.86339V9.87158C65.8501 9.85883 65.6591 9.85246 65.379 9.85246C63.7874 9.85246 62.9916 10.6239 62.9916 12.1667V17.7705H60.7189V7.88251H62.8007V9.5082C63.0298 8.95993 63.3609 8.53916 63.7938 8.2459C64.2267 7.93989 64.7296 7.78689 65.3026 7.78689Z" fill="#FDFDFD"/>
<path clip-rule="evenodd" d="M74.6834 9.06831C73.8557 8.12477 72.7035 7.65301 71.2265 7.65301C70.2843 7.65301 69.4503 7.86976 68.7246 8.30328C67.9988 8.73679 67.4322 9.35519 67.0248 10.1585C66.6173 10.949 66.4136 11.867 66.4136 12.9126C66.4136 13.9199 66.6046 14.806 66.9866 15.571C67.3813 16.3361 67.9479 16.9353 68.6864 17.3689C69.4248 17.7896 70.3034 18 71.322 18C72.5061 18 73.4801 17.7131 74.2441 17.1393C75.0208 16.5528 75.5173 15.8005 75.7338 14.8825H73.4419C73.3019 15.3033 73.0536 15.6348 72.6971 15.877C72.3406 16.1066 71.8758 16.2213 71.3029 16.2213C70.5644 16.2213 69.9596 15.9982 69.4885 15.5519C69.0301 15.1056 68.7564 14.4235 68.6673 13.5055H75.9057V13.276C75.9184 13.1612 75.9248 13.0209 75.9248 12.8552C75.9248 11.2614 75.511 9.99909 74.6834 9.06831ZM72.8881 10.0628C73.3083 10.4964 73.5438 11.1275 73.5947 11.9563H68.7246C68.8519 11.1275 69.132 10.4964 69.5649 10.0628C70.0105 9.62933 70.5644 9.41257 71.2265 9.41257C71.9268 9.41257 72.4806 9.62933 72.8881 10.0628Z" fill="#FDFDFD" fill-rule="evenodd"/>
<path d="M85.9666 7.88251V17.7705H83.9039V16.3361C83.5728 16.8716 83.1463 17.286 82.6243 17.5792C82.115 17.8597 81.5229 18 80.8481 18C79.7531 18 78.9 17.6876 78.2888 17.0628C77.6904 16.4381 77.3912 15.5392 77.3912 14.3661V7.88251H79.664V14.0792C79.664 14.7295 79.8167 15.2268 80.1223 15.571C80.4406 15.9153 80.8926 16.0874 81.4783 16.0874C82.1532 16.0874 82.6879 15.8707 83.0826 15.4372C83.4901 14.9909 83.6938 14.398 83.6938 13.6585V7.88251H85.9666Z" fill="#FDFDFD"/>
<path d="M102.024 8.70492C101.374 8.00364 100.502 7.65301 99.407 7.65301C98.694 7.65301 98.0637 7.80601 97.5162 8.11202C96.9687 8.41803 96.5294 8.8643 96.1984 9.45082C95.9056 8.8643 95.4918 8.41803 94.957 8.11202C94.435 7.80601 93.8174 7.65301 93.1044 7.65301C92.4423 7.65301 91.8566 7.79326 91.3473 8.07377C90.838 8.34153 90.4242 8.73042 90.1059 9.24044V7.88251H88.0241V17.7705H90.2969V11.918C90.2969 11.1785 90.4942 10.6111 90.889 10.2158C91.2837 9.82058 91.7802 9.62295 92.3787 9.62295C92.9898 9.62295 93.4736 9.83333 93.8302 10.2541C94.1994 10.6621 94.384 11.2614 94.384 12.0519V17.7705H96.6568V11.918C96.6568 11.204 96.8541 10.643 97.2488 10.235C97.6435 9.82696 98.1401 9.62295 98.7385 9.62295C99.3497 9.62295 99.8335 9.83333 100.19 10.2541C100.547 10.6621 100.725 11.2614 100.725 12.0519V17.7705H102.998V11.6311C102.998 10.3816 102.673 9.40619 102.024 8.70492Z" fill="#FDFDFD"/>
</svg>