<?xml version="1.0" encoding="utf-8"?>
<svg xmlns="http://www.w3.org/2000/svg" fill="none" height="24" viewBox="0 0 118 24" width="118">
<path clip-rule="evenodd" d="M11.9521 24C18.553 24 23.9041 18.6274 23.9041 12C23.9041 5.37259 18.553 0 11.9521 0C5.35113 0 0 5.37259 0 12C0 18.6274 5.35113 24 11.9521 24ZM6.24567 16.7751H8.56522C9.11136 16.7751 9.38443 16.7751 9.62812 16.7073C9.89532 16.6277 10.139 16.4863 10.3416 16.2917C10.5276 16.1137 10.6619 15.8778 10.9267 15.4125L10.9347 15.3985L13.9431 10.0592C14.2103 9.59043 14.3424 9.35458 14.4012 9.10694C14.4657 8.83868 14.4657 8.55568 14.4012 8.28742C14.3429 8.04174 14.2095 7.80767 13.9464 7.34619L13.9462 7.34578L12.7628 5.27169C12.5191 4.84129 12.3958 4.6261 12.2401 4.5465C12.0728 4.46103 11.8731 4.46103 11.7058 4.5465C11.5501 4.6261 11.4268 4.84129 11.1831 5.27169L5.45583 15.4073C5.21506 15.8318 5.09469 16.0441 5.10348 16.218C5.11523 16.4067 5.21214 16.5776 5.37067 16.6808C5.5175 16.7751 5.75828 16.7751 6.24567 16.7751ZM17.7466 16.7754H14.4229C13.9325 16.7754 13.6859 16.7754 13.542 16.6811C13.3835 16.5779 13.2866 16.404 13.2749 16.2153C13.2661 16.0427 13.3874 15.8324 13.6302 15.4116L13.6303 15.4115L13.636 15.4017L15.2949 12.5422C15.5386 12.1206 15.6619 11.9113 15.8146 11.8317C15.982 11.7462 16.1787 11.7462 16.3461 11.8317C16.4977 11.9093 16.6158 12.1098 16.8498 12.5071L16.8687 12.5392L18.5335 15.3987C18.5375 15.4057 18.5415 15.4126 18.5455 15.4194C18.5495 15.4264 18.5535 15.4334 18.5575 15.4403C18.7883 15.8401 18.9061 16.0442 18.8976 16.2124C18.8888 16.401 18.7889 16.5749 18.6304 16.6781C18.4836 16.7754 18.237 16.7754 17.7466 16.7754Z" fill="#FDFDFD" fill-rule="evenodd"/>
<path d="M96.4999 9.77738C96.194 9.44654 95.8959 9.22598 95.6055 9.11566C95.3228 9.00538 95.0365 8.95026 94.7465 8.95026C94.3149 8.95026 93.9226 9.02901 93.5694 9.18658C93.2243 9.33626 92.9261 9.54896 92.6749 9.82468C92.4237 10.0925 92.2279 10.4076 92.0864 10.77C91.953 11.1324 91.8865 11.5223 91.8865 11.9398C91.8865 12.3888 91.953 12.8024 92.0864 13.1805C92.2279 13.5587 92.4237 13.8856 92.6749 14.1613C92.9261 14.437 93.2243 14.6537 93.5694 14.8112C93.9226 14.9688 94.3149 15.0476 94.7465 15.0476C95.0838 15.0476 95.4093 14.9688 95.7233 14.8112C96.0448 14.6458 96.3429 14.3858 96.6178 14.0313L97.8415 14.9057C97.465 15.4257 97.0061 15.8038 96.4645 16.0401C95.9232 16.2765 95.3465 16.3946 94.7347 16.3946C94.0911 16.3946 93.4988 16.2922 92.9576 16.0874C92.4237 15.8747 91.9607 15.5793 91.5687 15.2012C91.1841 14.8152 90.8819 14.3543 90.6625 13.8186C90.4426 13.2829 90.3329 12.6882 90.3329 12.0343C90.3329 11.3648 90.4426 10.7582 90.6625 10.2146C90.8819 9.66317 91.1841 9.19445 91.5687 8.80844C91.9607 8.42244 92.4237 8.12702 92.9576 7.92223C93.4988 7.70953 94.0911 7.60318 94.7347 7.60318C95.2996 7.60318 95.8212 7.7056 96.2997 7.91039C96.7863 8.10733 97.2374 8.44607 97.6534 8.92663L96.4999 9.77738Z" fill="#FDFDFD"/>
<path clip-rule="evenodd" d="M33.2016 7.81588H31.9188L28.2938 16.1819H29.9533L30.7065 14.2676H34.3197L35.0965 16.1819H36.7912L33.2016 7.81588ZM32.519 9.58835L33.8018 12.9915H31.2126L32.519 9.58835Z" fill="#FDFDFD" fill-rule="evenodd"/>
<path d="M40.0884 7.81588H38.3818L41.6538 16.1819H42.9366L46.3027 7.81588H44.7019L42.3598 14.1377L40.0884 7.81588Z" fill="#FDFDFD"/>
<path clip-rule="evenodd" d="M51.6023 7.81588H52.8854L56.4747 16.1819H54.78L54.0034 14.2676H50.3901L49.6367 16.1819H47.9775L51.6023 7.81588ZM53.4854 12.9915L52.2027 9.58835L50.8962 12.9915H53.4854Z" fill="#FDFDFD" fill-rule="evenodd"/>
<path d="M61.2378 7.81588H59.7548V16.1819H64.7802V14.8349H61.2378V7.81588Z" fill="#FDFDFD"/>
<path clip-rule="evenodd" d="M70.9066 7.81588H72.1898L75.7791 16.1819H74.0844L73.3078 14.2676H69.6944L68.9411 16.1819H67.2818L70.9066 7.81588ZM72.7898 12.9915L71.507 9.58835L70.2006 12.9915H72.7898Z" fill="#FDFDFD" fill-rule="evenodd"/>
<path d="M81.0247 7.81588H79.0592V16.1819H80.5422V9.76559H80.5655L84.685 16.1819H86.5677V7.81588H85.0851V14.0313H85.0614L81.0247 7.81588Z" fill="#FDFDFD"/>
<path d="M102.674 7.81588H101.191V16.1819H102.674V12.4952H106.569V16.1819H108.052V7.81588H106.569V11.1481H102.674V7.81588Z" fill="#FDFDFD"/>
<path d="M112.268 7.81588H117.788V9.16296H113.751V11.219H117.576V12.5661H113.751V14.8349H118V16.1819H112.268V7.81588Z" fill="#FDFDFD"/>
</svg>