<?xml version="1.0" encoding="utf-8"?>
<svg xmlns="http://www.w3.org/2000/svg" fill="none" height="24" viewBox="0 0 112 24" width="112">
<path d="M11.2629 5.03418C13.6484 5.03418 15.5823 3.90724 15.5823 2.51709C15.5823 1.12694 13.6484 0 11.2629 0C8.87734 0 6.94348 1.12694 6.94348 2.51709C6.94348 3.90724 8.87734 5.03418 11.2629 5.03418Z" fill="#FDFDFD"/>
<path clip-rule="evenodd" d="M34.7843 3.58077C33.473 3.58077 32.2093 3.74585 31.6946 3.88541C30.9456 4.09644 30.7587 4.4249 30.6178 5.10566L27.6453 18.8484C27.6396 18.8819 27.634 18.9147 27.6285 18.9469L27.6285 18.9469C27.5875 19.1852 27.5519 19.3921 27.5519 19.5989C27.5519 20.2797 27.9969 20.7239 28.7222 20.7239C29.5188 20.7239 29.8466 20.2082 30.0097 19.41L30.8522 15.494C31.4365 15.5638 32.2093 15.6352 33.3099 15.6352C38.1559 15.6352 41.1742 13.0092 41.1742 9.04553C41.1742 5.57368 38.7623 3.58077 34.7843 3.58077ZM33.1927 13.3836C32.4437 13.3836 31.8577 13.3598 31.321 13.29L32.8887 5.99575C33.3796 5.92597 34.1066 5.83066 34.8556 5.83066C37.4306 5.83066 38.7419 7.05092 38.7419 9.06765C38.7402 11.6477 36.8667 13.3836 33.1927 13.3836Z" fill="#FDFDFD" fill-rule="evenodd"/>
<path d="M111.04 16.1969C110.643 16.1969 110.385 16.4317 109.894 16.9712C109.028 17.863 108.489 18.3548 107.811 18.3548C107.203 18.3548 106.876 17.863 106.876 17.0648C106.876 16.6189 106.969 16.0794 107.086 15.494L107.952 11.4128H110.551C111.37 11.4128 111.862 10.9431 111.862 10.099C111.862 9.62927 111.558 9.27868 110.857 9.27868H108.419L108.841 7.37938L108.847 7.33993C108.892 7.0743 108.934 6.82884 108.934 6.60502C108.934 5.94809 108.489 5.47837 107.764 5.47837C106.991 5.47837 106.641 5.99404 106.476 6.79223L105.938 9.27868H104.837C103.995 9.27868 103.504 9.74841 103.504 10.5925C103.504 11.0623 103.832 11.4128 104.533 11.4128H105.493L104.627 15.4463C104.533 15.8922 104.416 16.6189 104.416 17.3695C104.416 19.2688 105.399 20.6524 107.506 20.6524C108.724 20.6524 109.799 20.0431 110.619 19.3147C111.416 18.6118 112 17.7439 112 17.1805C112 16.6427 111.579 16.1969 111.04 16.1969Z" fill="#FDFDFD"/>
<path d="M56.0127 3.83775C56.7379 3.83775 57.2067 4.28365 57.2067 4.9644C57.2067 5.12533 57.174 5.28545 57.1382 5.4612C57.1217 5.54195 57.1045 5.626 57.0895 5.71493L54.1646 19.3385C53.9999 20.1367 53.65 20.6524 52.8534 20.6524C52.1519 20.6524 51.6831 20.2082 51.6831 19.5274C51.6831 19.2926 51.7306 19.0577 51.8003 18.7769L54.7252 5.15161C54.8899 4.35343 55.2398 3.83775 56.0127 3.83775Z" fill="#FDFDFD"/>
<path clip-rule="evenodd" d="M98.9858 9.04383C95.2405 9.04383 92.6893 12.7727 92.6893 16.3143C92.6893 16.3807 92.691 16.447 92.6927 16.5117C92.105 17.4052 91.3542 18.331 90.8396 18.331C90.4659 18.331 90.3249 17.9787 90.3249 17.4392C90.3249 16.7823 90.5118 15.6795 90.7224 14.7179L92.6655 5.71153C92.6711 5.67822 92.6768 5.64555 92.6823 5.61345L92.6824 5.61293C92.7234 5.37469 92.7589 5.16785 92.7589 4.961C92.7589 4.28024 92.3139 3.83435 91.5886 3.83435C90.792 3.83435 90.4659 4.35002 90.3011 5.14821L89.248 10.0258C88.6858 9.44036 87.8654 9.04042 86.6255 9.04042C84.1388 9.04042 81.6369 10.9584 80.6619 13.901C79.5884 16.6819 78.6288 18.3276 77.8712 18.3276C77.5909 18.3276 77.4262 18.0928 77.4262 17.6945C77.4262 16.7284 77.8712 14.6164 78.1847 13.1286C78.2517 12.8106 78.3127 12.5211 78.3621 12.2774C78.3747 12.208 78.3864 12.144 78.3973 12.0846L78.3975 12.0837C78.4675 11.7029 78.5031 11.5095 78.5031 11.2461C78.5031 10.2147 76.7943 8.99447 74.5709 8.99447C71.9993 8.99447 69.6706 10.6266 68.5037 13.0501C66.7695 16.1203 65.178 18.3276 64.3899 18.3276C64.0383 18.3276 63.9211 17.8817 63.8277 17.4597L63.245 14.2278L66.8256 11.2971C67.1534 11.0163 67.5746 10.6164 67.5746 10.1007C67.5746 9.46759 67.1534 9.04553 66.5215 9.04553C66.0527 9.04553 65.6553 9.32634 65.2578 9.6548L59.8751 14.1103L61.6773 5.71493C61.6921 5.62755 61.709 5.54461 61.7254 5.46473C61.7615 5.28795 61.7945 5.12617 61.7945 4.9644C61.7945 4.28365 61.3257 3.83775 60.6004 3.83775C59.8276 3.83775 59.4777 4.35343 59.3129 5.15161L56.388 18.7769C56.3184 19.0577 56.2708 19.2926 56.2708 19.5274C56.2708 20.2082 56.7396 20.6524 57.4411 20.6524C58.2377 20.6524 58.5877 20.1367 58.7524 19.3385L59.1278 17.5805L61.3274 15.7986L61.8658 18.5182C62.0765 19.5972 62.6387 20.6524 64.0892 20.6524C65.533 20.6524 66.6693 19.3317 67.8073 17.5464C68.1521 19.4168 69.4804 20.6524 71.3233 20.6524C73.173 20.6524 74.4367 19.5496 75.2554 18.0723V18.12C75.2554 19.6449 76.0283 20.6524 77.3854 20.6524C78.6135 20.6524 79.6326 19.9104 80.543 18.3344C81.0594 19.7078 82.2144 20.6524 83.8212 20.6524C85.7168 20.6524 87.0739 19.5036 87.9402 17.909V18.0502C87.9402 19.7385 88.7826 20.6541 90.1636 20.6541C91.3831 20.6541 92.4192 19.9444 93.3042 18.7905C93.9768 19.9444 95.1827 20.6541 96.8116 20.6541C100.557 20.6541 103.108 16.9253 103.108 13.3598C103.106 10.8495 101.585 9.04383 98.9858 9.04383ZM75.6512 13.8057C74.9718 16.7364 73.5212 18.4025 71.8821 18.4025C70.7815 18.4025 70.1734 17.5584 70.1734 16.2922C70.1734 13.8057 71.9756 11.132 74.3858 11.132C75.1111 11.132 75.6733 11.3431 76.1642 11.6477L75.6512 13.8057ZM88.6875 12.5633C87.9385 16.0113 86.2297 18.4025 84.3579 18.4025C83.3286 18.4025 82.7188 17.6043 82.7188 16.2922C82.7188 13.7836 84.4514 11.1797 86.7682 11.1797C87.6582 11.1797 88.3359 11.4843 88.8285 11.8826L88.6875 12.5633ZM97.0902 18.4025C95.7331 18.4025 95.1709 17.4171 95.1709 16.1747C95.1709 13.8993 96.7386 11.2971 98.7055 11.2971C100.063 11.2971 100.625 12.2825 100.625 13.5249C100.625 15.8224 99.0571 18.4025 97.0902 18.4025Z" fill="#FDFDFD" fill-rule="evenodd"/>
<path clip-rule="evenodd" d="M40.7054 16.3143C40.7054 12.7727 43.2566 9.04383 47.0019 9.04383C49.599 9.04383 51.1209 10.8495 51.1209 13.3581C51.1209 16.9236 48.5696 20.6524 44.8244 20.6524C42.2273 20.6524 40.7054 18.8467 40.7054 16.3143ZM43.187 16.1747C43.187 17.4171 43.7492 18.4025 45.1063 18.4025C47.0715 18.4025 48.6393 15.8224 48.641 13.5249C48.641 12.2825 48.0788 11.2971 46.7216 11.2971C44.7547 11.2971 43.187 13.8993 43.187 16.1747Z" fill="#FDFDFD" fill-rule="evenodd"/>
<path d="M15.5823 21.4829C15.5823 22.8731 13.6484 24 11.2629 24C8.87734 24 6.94348 22.8731 6.94348 21.4829C6.94348 20.0928 8.87734 18.9658 11.2629 18.9658C13.6484 18.9658 15.5823 20.0928 15.5823 21.4829Z" fill="#FDFDFD"/>
<path d="M5.24351 8.51843C6.43628 6.44849 6.42854 4.20662 5.22622 3.51107C4.0239 2.81553 2.0823 3.9297 0.889536 5.99964C-0.303232 8.06958 -0.29549 10.3114 0.906827 11.007C2.10914 11.7025 4.05074 10.5884 5.24351 8.51843Z" fill="#FDFDFD"/>
<path d="M21.6185 12.9937C22.82 13.6888 22.8271 15.9303 21.6343 18.0002C20.4416 20.0702 18.5006 21.1847 17.2991 20.4896C16.0976 19.7945 16.0905 17.5531 17.2833 15.4831C18.4761 13.4132 20.417 12.2986 21.6185 12.9937Z" fill="#FDFDFD"/>
<path d="M5.22682 20.489C6.42914 19.7935 6.43688 17.5516 5.24411 15.4817C4.05134 13.4117 2.10974 12.2976 0.907428 12.9931C-0.294889 13.6887 -0.302631 15.9305 0.890137 18.0005C2.0829 20.0704 4.0245 21.1846 5.22682 20.489Z" fill="#FDFDFD"/>
<path d="M21.6354 6.00104C22.8281 8.07098 22.821 10.3125 21.6195 11.0075C20.418 11.7026 18.4771 10.5881 17.2843 8.51813C16.0916 6.44819 16.0986 4.2067 17.3001 3.51163C18.5017 2.81655 20.4426 3.9311 21.6354 6.00104Z" fill="#FDFDFD"/>
</svg>