<?xml version="1.0" encoding="utf-8"?>
<svg xmlns="http://www.w3.org/2000/svg" fill="none" height="24" viewBox="0 0 96 24" width="96">
<path d="M18.9911 21.9999C17.2115 21.9999 15.7638 20.5644 15.7638 18.7997V12.908C18.7023 12.6827 20.8282 12.0655 22.2185 11.0577V18.7997C22.2185 20.5644 20.7708 21.9999 18.9911 21.9999ZM15.7638 5.20015C15.7638 3.43547 17.2115 1.99993 18.9911 1.99993C20.7708 1.99993 22.2185 3.43547 22.2185 5.20015V7.1334C22.1869 7.81327 22.0381 8.5118 21.4345 9.1132C20.7279 9.81613 19.1636 10.6093 15.7638 10.8942V5.20015ZM8.48197 18.7997C8.48197 20.5644 7.0342 21.9999 5.2546 21.9999C3.47496 21.9999 2.02725 20.5644 2.02725 18.7997V17.0056C2.05961 16.3521 2.21797 15.6394 2.8703 14.9882C3.60418 14.2545 5.16844 13.4302 8.48197 13.1219V18.7997ZM5.2546 1.99993C7.0342 1.99993 8.48197 3.43547 8.48197 5.20015V11.1097C5.56544 11.3579 3.43799 12.0165 2.02725 13.0883V5.20015C2.02725 3.43547 3.47496 1.99993 5.2546 1.99993ZM24.2403 6.33979L24.2354 5.99991V5.20015C24.2354 2.33295 21.8826 0 18.9911 0C16.0996 0 13.7469 2.33295 13.7469 5.20015V10.9903C13.237 11.0005 11.0317 10.9977 10.4989 11.0098V5.20015C10.4989 2.33295 8.14608 0 5.2546 0C2.36309 0 0.0102422 2.33295 0.0102422 5.20015V16.9063C-0.00611216 17.2239 0.000681618 17.5077 0.00632504 17.7412L0.0102422 18V18.7997C0.0102422 21.6669 2.36309 24 5.2546 24C8.14608 24 10.4989 21.6669 10.4989 18.7997V13.0136C11.0142 13.0011 13.2203 13.0049 13.7469 12.9957V18.7997C13.7469 21.6669 16.0996 24 18.9911 24C21.8826 24 24.2354 21.6669 24.2354 18.7997V7.24167C24.2522 6.90727 24.2461 6.60108 24.2403 6.33979Z" fill="#FDFDFD"/>
<path d="M33.7305 17.5171V6.49669C33.7305 6.43365 33.7821 6.38248 33.8457 6.38248H35.5413C35.6048 6.38248 35.6564 6.43365 35.6564 6.49669V11.1167H41.4716V6.49669C41.4716 6.43365 41.5232 6.38248 41.5868 6.38248H43.2823C43.346 6.38248 43.3974 6.43365 43.3974 6.49669V17.5171C43.3974 17.5801 43.346 17.6313 43.2823 17.6313H41.5868C41.5232 17.6313 41.4716 17.5801 41.4716 17.5171V12.892H35.6564V17.5171C35.6564 17.5801 35.6048 17.6313 35.5413 17.6313H33.8457C33.7821 17.6313 33.7305 17.5801 33.7305 17.5171Z" fill="#FDFDFD"/>
<path d="M48.358 11.6932C47.0791 11.6932 46.2817 12.6333 46.2817 13.9463C46.2817 15.2589 47.0641 16.1843 48.3429 16.1843C49.6218 16.1843 50.4495 15.2741 50.4495 13.9463C50.4495 12.6181 49.6369 11.6932 48.358 11.6932ZM52.3152 10.3751V17.5171C52.3152 17.5801 52.2636 17.6313 52.2 17.6313H50.7037C50.6446 17.6313 50.5952 17.5871 50.5891 17.5289L50.4794 16.4827C50.0131 17.2433 49.1253 17.8251 47.9216 17.8251C45.7099 17.8251 44.4461 16.1543 44.4461 13.8565C44.4461 11.5441 45.8452 10.0371 47.9367 10.0371C49.0501 10.0371 50.0882 10.5146 50.5398 11.3949L50.6353 10.3647C50.6407 10.3059 50.6905 10.2609 50.7501 10.2609H52.2C52.2636 10.2609 52.3152 10.312 52.3152 10.3751Z" fill="#FDFDFD"/>
<path d="M58.2309 11.8027C58.2309 11.8658 58.1792 11.9169 58.1157 11.9169H57.5539C56.2298 11.9169 55.4022 12.6181 55.4022 14.0509V17.5171C55.4022 17.5802 55.3505 17.6313 55.287 17.6313H53.6817C53.6182 17.6313 53.5665 17.5802 53.5665 17.5171V10.3903C53.5665 10.3272 53.6182 10.2761 53.6817 10.2761H55.1924C55.2517 10.2761 55.3014 10.3207 55.3071 10.3793L55.4022 11.3501C55.7181 10.6191 56.4254 10.1592 57.4183 10.1592C57.6482 10.1592 57.8781 10.1569 58.1406 10.2109C58.1933 10.2217 58.2309 10.2695 58.2309 10.3229V11.8027Z" fill="#FDFDFD"/>
<path d="M59.1833 17.5171V10.3751C59.1833 10.312 59.2348 10.2609 59.2985 10.2609H60.7714C60.8274 10.2609 60.8754 10.3009 60.8849 10.3557L61.0188 11.1264C61.3951 10.5146 62.1473 10.0371 63.2156 10.0371C64.3441 10.0371 65.1264 10.5891 65.5176 11.4395C65.894 10.5891 66.7666 10.0371 67.8948 10.0371C69.7006 10.0371 70.6936 11.1113 70.6936 12.8124V17.5171C70.6936 17.5801 70.6419 17.6313 70.578 17.6313H68.988C68.9241 17.6313 68.873 17.5801 68.873 17.5171V13.2899C68.873 12.2305 68.3015 11.6785 67.4282 11.6785C66.5409 11.6785 65.8638 12.2453 65.8638 13.4537V17.5171C65.8638 17.5801 65.8122 17.6313 65.7486 17.6313H64.1434C64.0798 17.6313 64.0282 17.5801 64.0282 17.5171V13.2747C64.0282 12.2453 63.4715 11.6932 62.5988 11.6932C61.7261 11.6932 61.0188 12.2604 61.0188 13.4537V17.5171C61.0188 17.5801 60.9673 17.6313 60.9037 17.6313H59.2985C59.2348 17.6313 59.1833 17.5801 59.1833 17.5171Z" fill="#FDFDFD"/>
<path d="M75.57 16.1843C76.8333 16.1843 77.7066 15.2741 77.7066 13.9311C77.7066 12.5886 76.8333 11.6785 75.57 11.6785C74.306 11.6785 73.4333 12.5886 73.4333 13.9311C73.4333 15.2741 74.306 16.1843 75.57 16.1843ZM75.57 10.0523C77.872 10.0523 79.542 11.6337 79.542 13.9311C79.542 16.2289 77.872 17.8104 75.57 17.8104C73.268 17.8104 71.5979 16.2289 71.5979 13.9311C71.5979 11.6337 73.268 10.0523 75.57 10.0523Z" fill="#FDFDFD"/>
<path d="M80.5008 17.5171V10.3751C80.5008 10.312 80.5525 10.2609 80.6164 10.2609H82.1029C82.1594 10.2609 82.2078 10.3019 82.2165 10.3575L82.3517 11.2158C82.8182 10.4699 83.7212 10.0371 84.729 10.0371C86.5947 10.0371 87.5574 11.1862 87.5574 13.0959V17.5171C87.5574 17.5801 87.5057 17.6313 87.4425 17.6313H85.837C85.7738 17.6313 85.722 17.5801 85.722 17.5171V13.5283C85.722 12.2902 85.1055 11.6932 84.1575 11.6932C83.0287 11.6932 82.3369 12.4689 82.3369 13.6627V17.5171C82.3369 17.5801 82.2851 17.6313 82.2212 17.6313H80.6164C80.5525 17.6313 80.5008 17.5801 80.5008 17.5171Z" fill="#FDFDFD"/>
<path d="M95.8848 10.2609H94.1804C94.1327 10.2609 94.0903 10.2901 94.0729 10.3341L91.8986 15.9267L89.8043 10.337C89.7882 10.2914 89.7451 10.2609 89.6961 10.2609H87.9467C87.866 10.2609 87.8102 10.3415 87.8398 10.4163L90.5123 17.2629C90.599 17.485 90.8141 17.6313 91.0548 17.6313H91.2357L89.9139 21.0067C89.885 21.0815 89.9401 21.1619 90.0215 21.1619H91.7009C91.7487 21.1619 91.7917 21.1322 91.8085 21.0874L95.9917 10.4176C96.0219 10.3426 95.9661 10.2609 95.8848 10.2609Z" fill="#FDFDFD"/>
</svg>